<svg t="1635305754840" class="icon" viewBox="0 0 1024 1024" version="1.1" xmlns="http://www.w3.org/2000/svg" p-id="3716" width="64" height="64"><path d="M17.667413 201.864533c0 16.45568 6.73792 32.785067 18.397867 44.448427 11.666773 11.66336 27.992747 18.404693 44.448427 18.404693 16.462507 0 32.78848-6.741333 44.45184-18.404693 11.659947-11.66336 18.397867-27.989333 18.397866-44.448427 0-16.459093-6.73792-32.785067-18.397866-44.448426-11.66336-11.659947-27.989333-18.40128-44.45184-18.40128-16.45568 0-32.781653 6.741333-44.445014 18.397866-11.537067 11.666773-18.40128 27.992747-18.40128 44.45184zM9.762133 513.652053c0 16.452267 6.73792 32.918187 18.40128 44.57472 11.66336 11.666773 27.989333 18.40128 44.578134 18.40128 16.459093 0 32.914773-6.734507 44.578133-18.40128 11.659947-11.656533 18.397867-27.989333 18.397867-44.57472 0-16.459093-6.734507-32.918187-18.397867-44.578133-11.66336-11.66336-27.989333-18.40128-44.578133-18.40128-16.45568 0-32.914773 6.73792-44.578134 18.40128-11.66336 11.659947-18.40128 27.989333-18.40128 44.578133z m0 313.207467c0 16.462507 6.73792 32.9216 18.40128 44.581547 11.66336 11.659947 27.989333 18.397867 44.578134 18.397866 16.459093 0 32.914773-6.73792 44.578133-18.397866 11.659947-11.659947 18.397867-27.989333 18.397867-44.578134 0-16.459093-6.734507-32.91136-18.397867-44.578133-11.66336-11.66336-27.989333-18.404693-44.578133-18.404693-16.45568 0-32.914773 6.741333-44.578134 18.404693-11.66336 11.79648-18.40128 28.11904-18.40128 44.578133zM1016.917333 199.017813c0 33.174187-24.623787 59.99616-55.08096 59.99616H308.978347c-30.45376 0-55.074133-26.821973-55.074134-59.99616 0-33.1776 24.620373-59.999573 55.074134-59.999573h652.858026c30.457173 0 55.08096 26.825387 55.08096 59.999573z m0 311.78752c0 33.047893-24.623787 59.992747-55.08096 59.992747H308.978347c-30.45376 0-55.074133-26.81856-55.074134-59.992747 0-33.1776 24.620373-59.999573 55.074134-59.999573h652.858026c30.457173-0.129707 55.08096 26.821973 55.08096 59.999573z m0 313.07776c0 33.1776-24.623787 60.002987-55.08096 60.002987l-652.858026-0.003413c-30.45376 0-55.074133-26.821973-55.074134-59.999574 0-33.041067 24.620373-59.869867 55.074134-59.869866h652.858026c30.457173-0.129707 55.08096 26.8288 55.08096 59.869866z" p-id="3717" fill="#000000"></path></svg>